<?xml version="1.0" encoding="UTF-8" standalone="no"?>
<!-- Created with Inkscape (http://www.inkscape.org/) -->

<svg
   version="1.1"
   id="svg194"
   width="195.84"
   height="121.92"
   viewBox="0 0 195.84 121.92"
   sodipodi:docname="triangle_2.svg"
   inkscape:version="1.2 (dc2aeda, 2022-05-15)"
   xmlns:inkscape="http://www.inkscape.org/namespaces/inkscape"
   xmlns:sodipodi="http://sodipodi.sourceforge.net/DTD/sodipodi-0.dtd"
   xmlns="http://www.w3.org/2000/svg"
   xmlns:svg="http://www.w3.org/2000/svg">
  <defs
     id="defs198">
    <rect
       x="24.54666"
       y="36.501835"
       width="59.414853"
       height="51.833798"
       id="rect1360" />
    <rect
       x="37.912582"
       y="29.647831"
       width="46.386623"
       height="24.072408"
       id="rect1304" />
  </defs>
  <sodipodi:namedview
     id="namedview196"
     pagecolor="#ffffff"
     bordercolor="#000000"
     borderopacity="0.25"
     inkscape:showpageshadow="2"
     inkscape:pageopacity="0.0"
     inkscape:pagecheckerboard="0"
     inkscape:deskcolor="#d1d1d1"
     showgrid="false"
     inkscape:zoom="1.5581651"
     inkscape:cx="61.290039"
     inkscape:cy="84.394138"
     inkscape:window-width="1294"
     inkscape:window-height="704"
     inkscape:window-x="72"
     inkscape:window-y="27"
     inkscape:window-maximized="1"
     inkscape:current-layer="layer1" />
  <g
     inkscape:groupmode="layer"
     id="layer1"
     inkscape:label="layer1">
    <text
       xml:space="preserve"
       id="text1358"
       style="font-style:normal;font-variant:normal;font-weight:normal;font-stretch:normal;font-size:21.3333px;font-family:C059;-inkscape-font-specification:C059;white-space:pre;shape-inside:url(#rect1360);opacity:1;fill:#000000;fill-opacity:1;stroke:none;stroke-width:1.50803;stroke-dasharray:none;stroke-dashoffset:4.20661;stroke-opacity:1"
       transform="translate(60.9405,51.632844)"><tspan
         x="24.546875"
         y="54.891257"
         id="tspan1398">13</tspan></text>
    <path
       style="fill:none;stroke-width:2.26771654;stroke-dashoffset:4.20661;stroke:#000000;stroke-opacity:1;stroke-dasharray:none"
       d="M 20.273473,86.297494 H 150.40562 V 33.302219 Z"
       id="path372" />
    <g
       id="page1"
       transform="matrix(0.99225193,0,0,0.99225193,99.921811,-4.2650531)"
       style="opacity:1;stroke-width:0.62087356;stroke-dasharray:none;stroke:#000000;stroke-opacity:1">
      <path
         id="use1050"
         d="m 60.979682,66.528889 c 1.838965,0 2.644803,1.591014 2.644803,3.429978 0,2.479503 -1.322402,3.429979 -2.520828,3.429979 -1.095113,0 -2.87209,-0.537226 -3.429978,-2.12824 0.103312,0.04133 0.206625,0.04133 0.309938,0.04133 0.4959,0 0.867825,-0.3306 0.867825,-0.867826 0,-0.599213 -0.454575,-0.867826 -0.867825,-0.867826 -0.351263,0 -0.888489,0.165301 -0.888489,0.929814 0,1.900952 1.859627,3.388653 4.049854,3.388653 2.29354,0 4.049854,-1.797639 4.049854,-3.905216 0,-2.004265 -1.653001,-3.450641 -3.615941,-3.677929 1.570352,-0.3306 3.078716,-1.735652 3.078716,-3.615941 0,-1.611677 -1.632339,-2.78944 -3.491966,-2.78944 -1.88029,0 -3.533291,1.157101 -3.533291,2.810102 0,0.723189 0.537225,0.847164 0.805838,0.847164 0.433913,0 0.805838,-0.268613 0.805838,-0.805839 0,-0.537226 -0.371925,-0.805838 -0.805838,-0.805838 -0.08265,0 -0.185963,0 -0.268613,0.04133 0.599213,-1.363726 2.231553,-1.611676 2.954741,-1.611676 0.723188,0 2.086914,0.351262 2.086914,2.334864 0,0.578551 -0.08265,1.611677 -0.785175,2.520828 -0.619876,0.805838 -1.322402,0.847163 -2.004265,0.909151 -0.103313,0 -0.578551,0.04133 -0.661201,0.04133 -0.144637,0.02066 -0.227287,0.04133 -0.227287,0.185963 0,0.144638 0.02066,0.1653 0.433913,0.1653 z"
         style="stroke-width:0.62087356;stroke-dasharray:none;stroke:#000000;stroke-opacity:1" />
      <path
         id="use1052"
         d="M 73.927194,73.117661 70.29059,65.079941 C 70.145952,64.74934 70.04264,64.74934 69.980652,64.74934 c -0.02066,0 -0.123975,0 -0.351263,0.165301 l -1.962939,1.487701 c -0.268613,0.206625 -0.268613,0.268613 -0.268613,0.3306 0,0.103313 0.06199,0.227288 0.206625,0.227288 0.123975,0 0.475238,-0.289275 0.702526,-0.454575 0.123975,-0.103313 0.433913,-0.330601 0.661201,-0.495901 l 4.070516,8.946872 c 0.144638,0.3306 0.247951,0.3306 0.433913,0.3306 0.309938,0 0.371926,-0.123975 0.516563,-0.41325 l 9.380785,-19.42277 c 0.144637,-0.289275 0.144637,-0.371925 0.144637,-0.41325 0,-0.206626 -0.1653,-0.413251 -0.41325,-0.413251 -0.1653,0 -0.309938,0.103313 -0.475238,0.433913 z"
         style="stroke-width:0.62087356;stroke-dasharray:none;stroke:#000000;stroke-opacity:1" />
      <rect
         x="83.108292"
         y="54.624733"
         height="0.82647502"
         width="9.4761982"
         id="rect1054"
         style="stroke-width:0.62087356;stroke-dasharray:none;stroke:#000000;stroke-opacity:1" />
      <path
         id="use1056"
         d="m 87.674709,66.528889 c 1.838965,0 2.644803,1.591014 2.644803,3.429978 0,2.479503 -1.322402,3.429979 -2.520828,3.429979 -1.095113,0 -2.87209,-0.537226 -3.429978,-2.12824 0.103312,0.04133 0.206625,0.04133 0.309938,0.04133 0.4959,0 0.867825,-0.3306 0.867825,-0.867826 0,-0.599213 -0.454575,-0.867826 -0.867825,-0.867826 -0.351263,0 -0.888489,0.165301 -0.888489,0.929814 0,1.900952 1.859627,3.388653 4.049854,3.388653 2.29354,0 4.049854,-1.797639 4.049854,-3.905216 0,-2.004265 -1.653001,-3.450641 -3.615941,-3.677929 1.570352,-0.3306 3.078716,-1.735652 3.078716,-3.615941 0,-1.611677 -1.632339,-2.78944 -3.491966,-2.78944 -1.88029,0 -3.533291,1.157101 -3.533291,2.810102 0,0.723189 0.537225,0.847164 0.805838,0.847164 0.433913,0 0.805838,-0.268613 0.805838,-0.805839 0,-0.537226 -0.371925,-0.805838 -0.805838,-0.805838 -0.08265,0 -0.185963,0 -0.268613,0.04133 0.599213,-1.363726 2.231553,-1.611676 2.954741,-1.611676 0.723188,0 2.086914,0.351262 2.086914,2.334864 0,0.578551 -0.08265,1.611677 -0.785175,2.520828 -0.619876,0.805838 -1.322402,0.847163 -2.004265,0.909151 -0.103313,0 -0.578551,0.04133 -0.661201,0.04133 -0.144637,0.02066 -0.227287,0.04133 -0.227287,0.185963 0,0.144638 0.02066,0.1653 0.433913,0.1653 z"
         style="stroke-width:0.62087356;stroke-dasharray:none;stroke:#000000;stroke-opacity:1" />
    </g>
    <text
       xml:space="preserve"
       id="text1302"
       style="font-style:normal;font-variant:normal;font-weight:normal;font-stretch:normal;font-size:21.3333px;font-family:C059;-inkscape-font-specification:C059;white-space:pre;shape-inside:url(#rect1304);opacity:1;fill:#000000;fill-opacity:1;stroke:none;stroke-width:1.50803;stroke-dasharray:none;stroke-dashoffset:4.20661;stroke-opacity:1"
       transform="translate(26.568655,3.2083394)"><tspan
         x="37.912109"
         y="48.037742"
         id="tspan1400">14</tspan></text>
  </g>
</svg>
