<?xml version="1.0" encoding="UTF-8" standalone="no"?>
<!-- Created with Inkscape (http://www.inkscape.org/) -->

<svg
   version="1.1"
   id="svg176"
   width="225"
   height="176.28"
   viewBox="0 0 225 176.28"
   sodipodi:docname="projecoes.svg"
   inkscape:version="1.2 (dc2aeda, 2022-05-15)"
   xmlns:inkscape="http://www.inkscape.org/namespaces/inkscape"
   xmlns:sodipodi="http://sodipodi.sourceforge.net/DTD/sodipodi-0.dtd"
   xmlns="http://www.w3.org/2000/svg"
   xmlns:svg="http://www.w3.org/2000/svg">
  <defs
     id="defs180">
    <rect
       x="54.854954"
       y="34.434063"
       width="39.481445"
       height="28.478827"
       id="rect5372" />
    <rect
       x="61.853645"
       y="52.527027"
       width="96.746994"
       height="38.823074"
       id="rect4106" />
    <rect
       x="108.97829"
       y="97.783638"
       width="31.360977"
       height="22.264229"
       id="rect3087" />
    <rect
       x="49.935322"
       y="53.886341"
       width="44.814247"
       height="33.544456"
       id="rect2145" />
  </defs>
  <sodipodi:namedview
     id="namedview178"
     pagecolor="#ffffff"
     bordercolor="#000000"
     borderopacity="0.25"
     inkscape:showpageshadow="2"
     inkscape:pageopacity="0.0"
     inkscape:pagecheckerboard="0"
     inkscape:deskcolor="#d1d1d1"
     showgrid="false"
     inkscape:zoom="1.6290957"
     inkscape:cx="101.89702"
     inkscape:cy="96.065568"
     inkscape:window-width="1294"
     inkscape:window-height="704"
     inkscape:window-x="72"
     inkscape:window-y="27"
     inkscape:window-maximized="1"
     inkscape:current-layer="layer2" />
  <g
     inkscape:groupmode="layer"
     id="layer1"
     inkscape:label="Image 1"
     transform="matrix(1.2019598,0,0,1.2019598,-1.6710492,-0.47097017)">
    <path
       style="opacity:1;fill:none;stroke:#000000;stroke-width:1.74992;stroke-dasharray:none;stroke-opacity:1"
       d="M 21.01646,63.480019 63.693174,104.9472 175.04059,5.2614262"
       id="path960" />
    <path
       style="opacity:1;fill:none;stroke:#000000;stroke-width:1.37197;stroke-dasharray:5.48787, 1.37197;stroke-dashoffset:0;stroke-opacity:1"
       d="M 21.440625,124.7452 V 64.165291"
       id="path1025" />
    <path
       style="opacity:1;fill:none;stroke:#000000;stroke-width:1.37197;stroke-dasharray:5.48787, 1.37197;stroke-dashoffset:0;stroke-opacity:1"
       d="M 41.145252,124.87627 V 83.435824"
       id="path1081" />
    <path
       style="opacity:1;fill:none;stroke:#000000;stroke-width:1.37197;stroke-dasharray:5.48787, 1.37197;stroke-dashoffset:0;stroke-opacity:1"
       d="M 63.276495,125.56811 V 105.1819"
       id="path1083" />
    <path
       style="opacity:1;fill:none;stroke:#000000;stroke-width:1.37197;stroke-dasharray:5.48788, 1.37197;stroke-dashoffset:1.64636;stroke-opacity:1"
       d="M 175.27431,125.28318 V 6.9574259"
       id="path1085" />
    <path
       style="opacity:1;fill:none;fill-opacity:1;stroke:#000000;stroke-width:0.994016;stroke-dasharray:none;stroke-dashoffset:1.64636;stroke-opacity:1"
       d="m 21.671505,77.709945 c 6.627038,-0.429583 6.834977,-3.142255 9.425763,-4.372078"
       id="path4671"
       sodipodi:nodetypes="cc" />
    <text
       xml:space="preserve"
       id="text5370"
       style="font-size:13.3333px;font-family:C059;-inkscape-font-specification:C059;white-space:pre;shape-inside:url(#rect5372);display:inline;opacity:1;fill:#000000;fill-opacity:1;stroke:none;stroke-width:0.994016;stroke-dasharray:none;stroke-dashoffset:1.64636;stroke-opacity:1"
       transform="translate(-29.663279,40.444402)"><tspan
         x="54.855469"
         y="45.926898"
         id="tspan5886">α</tspan></text>
  </g>
  <g
     inkscape:groupmode="layer"
     id="layer2"
     inkscape:label="Image 2"
     transform="matrix(1.2019598,0,0,1.2019598,-1.6710492,-0.47097017)">
    <text
       xml:space="preserve"
       id="text3085"
       style="font-size:13.3333px;font-family:C059;-inkscape-font-specification:C059;white-space:pre;shape-inside:url(#rect3087);display:inline;opacity:1;fill:#d341aa;fill-opacity:1;stroke:none;stroke-width:2.12787;stroke-dasharray:none;stroke-dashoffset:1.64636;stroke-opacity:1"
       transform="translate(3.0285872,9.6743541)"><tspan
         x="108.97852"
         y="109.27651"
         id="tspan5888">A</tspan></text>
    <text
       xml:space="preserve"
       id="text2143"
       style="font-size:13.3333px;font-family:C059;-inkscape-font-specification:C059;white-space:pre;shape-inside:url(#rect2145);display:inline;opacity:0.803062;fill:#4bd4af;fill-opacity:1;stroke:none;stroke-width:2.12787;stroke-dasharray:none;stroke-dashoffset:1.64636;stroke-opacity:1"
       transform="translate(-24.461084,54.76752)"><tspan
         x="49.935547"
         y="65.380023"
         id="tspan5890">B</tspan></text>
    <path
       style="opacity:1;fill:#d341aa;fill-opacity:1;stroke:#d341aa;stroke-width:1.74992;stroke-dasharray:none;stroke-dashoffset:1.64636;stroke-opacity:1"
       d="M 42.154828,125.34266 H 175.30464"
       id="path1703" />
    <path
       style="opacity:1;fill:#4bd4af;fill-opacity:1;stroke:#4bd4af;stroke-width:2.12787;stroke-dasharray:none;stroke-dashoffset:1.64636;stroke-opacity:1"
       d="M 20.888732,125.62706 H 39.461036"
       id="path2089" />
    <g
       id="page1"
       transform="matrix(0.96963183,0,0,0.96963183,-50.341999,76.886086)">
      <path
         id="use3748"
         d="m 58.613016,61.461521 c -0.203238,0.01196 -0.251059,0.02391 -0.251059,0.131506 0,0.119552 0.05978,0.119552 0.274969,0.119552 h 0.549938 c 1.016189,0 1.470486,0.836862 1.470486,1.984558 0,1.566127 -0.812952,1.984558 -1.398755,1.984558 -0.573848,0 -1.554172,-0.274969 -1.900872,-1.06401 0.382566,0.05978 0.729266,-0.155417 0.729266,-0.585803 0,-0.3467 -0.251059,-0.585803 -0.585804,-0.585803 -0.286924,0 -0.597758,0.167372 -0.597758,0.621668 0,1.06401 1.06401,1.936738 2.391034,1.936738 1.422665,0 2.474719,-1.087921 2.474719,-2.295393 0,-1.099875 -0.884682,-1.960647 -2.032378,-2.163885 1.040099,-0.298879 1.709589,-1.171607 1.709589,-2.10411 0,-0.944458 -0.980324,-1.637858 -2.139975,-1.637858 -1.195517,0 -2.0802,0.729265 -2.0802,1.601993 0,0.478206 0.370611,0.573848 0.549938,0.573848 0.251059,0 0.537983,-0.179328 0.537983,-0.537983 0,-0.382565 -0.286924,-0.549938 -0.549938,-0.549938 -0.07173,0 -0.09564,0 -0.131507,0.01196 0.454297,-0.812952 1.578082,-0.812952 1.637858,-0.812952 0.394521,0 1.171607,0.179328 1.171607,1.350934 0,0.227148 -0.03587,0.896638 -0.382566,1.41071 -0.358655,0.526027 -0.76513,0.561893 -1.08792,0.573848 z" />
      <path
         id="use3750"
         d="m 67.622173,61.927772 c 0,-0.992279 -0.05978,-1.960647 -0.490162,-2.86924 -0.490161,-0.992279 -1.350934,-1.255293 -1.936737,-1.255293 -0.6934,0 -1.542216,0.3467 -1.984558,1.338979 -0.334744,0.753176 -0.454296,1.494396 -0.454296,2.785554 0,1.159652 0.08369,2.032379 0.514072,2.881196 0.466252,0.908592 1.291158,1.195517 1.912827,1.195517 1.0401,0 1.637858,-0.621669 1.984558,-1.315069 0.430386,-0.896638 0.454296,-2.068244 0.454296,-2.761644 z m -2.438854,3.837609 c -0.382565,0 -1.159651,-0.215193 -1.386799,-1.518306 -0.131507,-0.71731 -0.131507,-1.625903 -0.131507,-2.462765 0,-0.980324 0,-1.865006 0.191282,-2.570361 0.203238,-0.800996 0.812952,-1.171606 1.327024,-1.171606 0.454296,0 1.147696,0.274968 1.374844,1.303113 0.155418,0.681444 0.155418,1.625903 0.155418,2.438854 0,0.800996 0,1.709589 -0.131507,2.438854 -0.227149,1.315069 -0.980324,1.542217 -1.398755,1.542217 z" />
      <path
         id="use3752"
         d="m 75.426469,62.429889 -2.391033,-2.379078 c -0.143462,-0.143462 -0.167373,-0.167373 -0.263014,-0.167373 -0.119552,0 -0.239103,0.107597 -0.239103,0.239104 0,0.08369 0.02391,0.107596 0.155417,0.239103 l 2.391034,2.402989 -2.391034,2.402989 c -0.131507,0.131507 -0.155417,0.155417 -0.155417,0.239103 0,0.131507 0.119551,0.239103 0.239103,0.239103 0.09564,0 0.119552,-0.02391 0.263014,-0.167372 l 2.379078,-2.379078 2.47472,2.474719 c 0.02391,0.01196 0.107597,0.07173 0.179328,0.07173 0.143462,0 0.239103,-0.107596 0.239103,-0.239103 0,-0.02391 0,-0.07173 -0.03587,-0.131507 -0.01196,-0.02391 -1.912826,-1.900871 -2.510585,-2.510585 l 2.187796,-2.187796 c 0.05978,-0.07173 0.239103,-0.227148 0.298879,-0.298879 0.01196,-0.02391 0.05978,-0.07173 0.05978,-0.155417 0,-0.131507 -0.09564,-0.239104 -0.239103,-0.239104 -0.09564,0 -0.143462,0.04782 -0.274969,0.179328 z" />
      <path
         id="use3754"
         d="m 86.652366,60.69639 c 0,-0.215193 0,-0.274969 -0.119552,-0.274969 -0.09564,0 -0.322789,0.263014 -0.406475,0.37061 -0.37061,-0.298879 -0.741221,-0.37061 -1.123786,-0.37061 -1.446575,0 -1.876961,0.789041 -1.876961,1.446575 0,0.131507 0,0.549938 0.454296,0.968369 0.382565,0.334745 0.789041,0.418431 1.338979,0.526027 0.657534,0.131507 0.812951,0.167373 1.11183,0.406476 0.215193,0.179328 0.370611,0.442341 0.370611,0.777086 0,0.514072 -0.29888,1.08792 -1.350934,1.08792 -0.789041,0 -1.36289,-0.454296 -1.625903,-1.649813 -0.04782,-0.215193 -0.04782,-0.227148 -0.05978,-0.239103 -0.02391,-0.04782 -0.07173,-0.04782 -0.107597,-0.04782 -0.131506,0 -0.131506,0.05978 -0.131506,0.274969 v 1.625903 c 0,0.215193 0,0.274969 0.119551,0.274969 0.05978,0 0.07173,-0.01196 0.274969,-0.263014 0.05978,-0.08369 0.05978,-0.107597 0.239103,-0.298879 0.454297,0.561893 1.099876,0.561893 1.303114,0.561893 1.255292,0 1.876961,-0.6934 1.876961,-1.637858 0,-0.645579 -0.39452,-1.028145 -0.502117,-1.135741 -0.430386,-0.370611 -0.753175,-0.442342 -1.542217,-0.585804 -0.358655,-0.07173 -1.231382,-0.239103 -1.231382,-0.956413 0,-0.37061 0.251059,-0.920548 1.327024,-0.920548 1.303113,0 1.374844,1.111831 1.398754,1.482441 0.01196,0.09564 0.09564,0.09564 0.131507,0.09564 0.131507,0 0.131507,-0.05978 0.131507,-0.274969 z" />
      <path
         id="use3756"
         d="m 89.428633,58.389042 c 0,-0.310834 -0.251058,-0.585803 -0.585803,-0.585803 -0.310834,0 -0.573848,0.251059 -0.573848,0.573848 0,0.358655 0.286924,0.585804 0.573848,0.585804 0.37061,0 0.585803,-0.310835 0.585803,-0.573849 z m -1.649813,2.223662 v 0.3467 c 0.765131,0 0.872727,0.07173 0.872727,0.657534 v 3.251806 c 0,0.537982 -0.131507,0.537982 -0.908592,0.537982 v 0.3467 c 0.334744,-0.02391 0.908592,-0.02391 1.255292,-0.02391 0.131507,0 0.824907,0 1.231383,0.02391 v -0.3467 c -0.777086,0 -0.824907,-0.05978 -0.824907,-0.526027 v -4.399502 z" />
      <path
         id="use3758"
         d="m 95.92014,62.84832 c 0,-1.11183 0,-1.446575 -0.274969,-1.829141 -0.3467,-0.466251 -0.908593,-0.537982 -1.315069,-0.537982 -1.159651,0 -1.613947,0.992279 -1.709589,1.231382 h -0.01196 v -1.231382 l -1.625903,0.131507 v 0.3467 c 0.812952,0 0.908593,0.08369 0.908593,0.669489 v 3.239851 c 0,0.537982 -0.131507,0.537982 -0.908593,0.537982 v 0.3467 c 0.310835,-0.02391 0.956414,-0.02391 1.291159,-0.02391 0.346699,0 0.992278,0 1.303113,0.02391 v -0.3467 c -0.765131,0 -0.908593,0 -0.908593,-0.537982 v -2.223662 c 0,-1.255292 0.824907,-1.924782 1.566127,-1.924782 0.74122,0 0.908593,0.609714 0.908593,1.338979 v 2.809465 c 0,0.537982 -0.131507,0.537982 -0.908593,0.537982 v 0.3467 c 0.310834,-0.02391 0.956414,-0.02391 1.291158,-0.02391 0.3467,0 0.992279,0 1.303114,0.02391 v -0.3467 c -0.597759,0 -0.896638,0 -0.908593,-0.358655 z" />
      <path
         id="use3760"
         d="m 100.98885,68.658532 c 0,-0.03587 0,-0.05978 -0.20324,-0.263014 -1.195519,-1.207472 -1.865008,-3.180075 -1.865008,-5.618929 0,-2.319302 0.561892,-4.315816 1.948688,-5.726525 0.11956,-0.107597 0.11956,-0.131507 0.11956,-0.167373 0,-0.07173 -0.0598,-0.09564 -0.1076,-0.09564 -0.15542,0 -1.135742,0.860772 -1.721545,2.032378 -0.609714,1.207472 -0.884683,2.486675 -0.884683,3.957161 0,1.06401 0.167373,2.486675 0.789042,3.765878 0.705354,1.43462 1.685676,2.211706 1.817186,2.211706 0.0478,0 0.1076,-0.02391 0.1076,-0.09564 z" />
      <path
         id="use3762"
         d="m 107.19098,62.728768 c 0,-1.159651 -0.65753,-2.247571 -1.92478,-2.247571 -1.56613,0 -3.13225,1.709589 -3.13225,3.407223 0,1.040099 0.64557,1.984558 1.865,1.984558 0.74122,0 1.6259,-0.286924 2.47472,-1.004234 0.16737,0.669489 0.53798,1.004234 1.05206,1.004234 0.64558,0 0.96836,-0.66949 0.96836,-0.824907 0,-0.107596 -0.0837,-0.107596 -0.11955,-0.107596 -0.0956,0 -0.10759,0.03586 -0.14346,0.131506 -0.1076,0.29888 -0.38256,0.561893 -0.66949,0.561893 -0.37061,0 -0.37061,-0.76513 -0.37061,-1.494396 1.21943,-1.45853 1.50635,-2.964881 1.50635,-2.976837 0,-0.107596 -0.0956,-0.107596 -0.1315,-0.107596 -0.1076,0 -0.11956,0.03587 -0.16738,0.251058 -0.15541,0.526028 -0.46625,1.458531 -1.20747,2.438855 z m -0.75317,1.853052 c -1.05206,0.944458 -1.99652,1.052054 -2.41495,1.052054 -0.84882,0 -1.08792,-0.753175 -1.08792,-1.315068 0,-0.514072 0.26302,-1.7335 0.63363,-2.391034 0.49016,-0.836862 1.15965,-1.207472 1.69763,-1.207472 1.15965,0 1.15965,1.518307 1.15965,2.522541 0,0.298879 -0.0119,0.609713 -0.0119,0.908592 0,0.239104 0.0119,0.29888 0.0239,0.430387 z" />
      <path
         id="use3764"
         d="m 112.54882,62.776589 c 0,-0.908593 -0.11955,-2.391033 -0.78904,-3.777833 -0.70535,-1.43462 -1.68567,-2.211706 -1.81718,-2.211706 -0.0478,0 -0.1076,0.02391 -0.1076,0.09564 0,0.03587 0,0.05978 0.20324,0.263014 1.19552,1.207472 1.86501,3.180075 1.86501,5.618929 0,2.319303 -0.5619,4.315816 -1.9487,5.726525 -0.11955,0.107597 -0.11955,0.131507 -0.11955,0.167373 0,0.07173 0.0598,0.09564 0.1076,0.09564 0.15542,0 1.13574,-0.860772 1.72154,-2.032378 0.60972,-1.219428 0.88468,-2.510586 0.88468,-3.945206 z" />
    </g>
    <g
       id="page1-3"
       transform="matrix(1.2063853,0,0,1.2063853,2.9385042,62.417802)">
      <path
         id="use4207"
         d="m 60.729081,57.970612 c 0,-0.227149 0,-0.286924 -0.167373,-0.286924 -0.09564,0 -0.131507,0 -0.227148,0.143462 l -3.598505,5.583063 v 0.3467 h 3.144209 v 1.08792 c 0,0.442341 -0.02391,0.561893 -0.896638,0.561893 h -0.239103 v 0.3467 c 0.274969,-0.02391 1.219427,-0.02391 1.554172,-0.02391 0.334745,0 1.291158,0 1.566127,0.02391 v -0.3467 h -0.239104 c -0.860772,0 -0.896637,-0.119552 -0.896637,-0.561893 v -1.08792 h 1.207472 v -0.3467 h -1.207472 z m -0.789041,0.932503 v 4.507098 h -2.905106 z" />
      <path
         id="use4209"
         d="m 67.622173,61.927772 c 0,-0.992279 -0.05978,-1.960647 -0.490162,-2.86924 -0.490161,-0.992279 -1.350934,-1.255293 -1.936737,-1.255293 -0.6934,0 -1.542216,0.3467 -1.984558,1.338979 -0.334744,0.753176 -0.454296,1.494396 -0.454296,2.785554 0,1.159652 0.08369,2.032379 0.514072,2.881196 0.466252,0.908592 1.291158,1.195517 1.912827,1.195517 1.0401,0 1.637858,-0.621669 1.984558,-1.315069 0.430386,-0.896638 0.454296,-2.068244 0.454296,-2.761644 z m -2.438854,3.837609 c -0.382565,0 -1.159651,-0.215193 -1.386799,-1.518306 -0.131507,-0.71731 -0.131507,-1.625903 -0.131507,-2.462765 0,-0.980324 0,-1.865006 0.191282,-2.570361 0.203238,-0.800996 0.812952,-1.171606 1.327024,-1.171606 0.454296,0 1.147696,0.274968 1.374844,1.303113 0.155418,0.681444 0.155418,1.625903 0.155418,2.438854 0,0.800996 0,1.709589 -0.131507,2.438854 -0.227149,1.315069 -0.980324,1.542217 -1.398755,1.542217 z" />
      <path
         id="use4211"
         d="m 73.475162,61.927772 c 0,-0.992279 -0.05978,-1.960647 -0.490162,-2.86924 -0.490161,-0.992279 -1.350934,-1.255293 -1.936737,-1.255293 -0.6934,0 -1.542216,0.3467 -1.984558,1.338979 -0.334744,0.753176 -0.454296,1.494396 -0.454296,2.785554 0,1.159652 0.08369,2.032379 0.514072,2.881196 0.466252,0.908592 1.291158,1.195517 1.912827,1.195517 1.0401,0 1.637858,-0.621669 1.984558,-1.315069 0.430386,-0.896638 0.454296,-2.068244 0.454296,-2.761644 z m -2.438854,3.837609 c -0.382565,0 -1.159651,-0.215193 -1.386799,-1.518306 -0.131507,-0.71731 -0.131507,-1.625903 -0.131507,-2.462765 0,-0.980324 0,-1.865006 0.191282,-2.570361 0.203238,-0.800996 0.812952,-1.171606 1.327024,-1.171606 0.454296,0 1.147696,0.274968 1.374844,1.303113 0.155418,0.681444 0.155418,1.625903 0.155418,2.438854 0,0.800996 0,1.709589 -0.131507,2.438854 -0.227149,1.315069 -0.980324,1.542217 -1.398755,1.542217 z" />
      <path
         id="use4213"
         d="m 81.279459,62.429889 -2.391033,-2.379078 c -0.143462,-0.143462 -0.167373,-0.167373 -0.263014,-0.167373 -0.119552,0 -0.239103,0.107597 -0.239103,0.239104 0,0.08369 0.02391,0.107596 0.155417,0.239103 l 2.391034,2.402989 -2.391034,2.402989 c -0.131507,0.131507 -0.155417,0.155417 -0.155417,0.239103 0,0.131507 0.119551,0.239103 0.239103,0.239103 0.09564,0 0.119552,-0.02391 0.263014,-0.167372 l 2.379078,-2.379078 2.47472,2.474719 c 0.02391,0.01196 0.107597,0.07173 0.179328,0.07173 0.143462,0 0.239103,-0.107596 0.239103,-0.239103 0,-0.02391 0,-0.07173 -0.03587,-0.131507 -0.01196,-0.02391 -1.912826,-1.900871 -2.510585,-2.510585 l 2.1878,-2.187795 c 0.05978,-0.07173 0.239103,-0.227148 0.298879,-0.298879 0.01196,-0.02391 0.05978,-0.07173 0.05978,-0.155417 0,-0.131507 -0.09564,-0.239104 -0.239103,-0.239104 -0.09564,0 -0.143462,0.04782 -0.274969,0.179328 z" />
      <path
         id="use4215"
         d="m 92.911832,61.330014 c -0.143462,0 -0.585803,0 -0.585803,0.490162 0,0.286924 0.203237,0.490162 0.490162,0.490162 0.274968,0 0.502117,-0.167373 0.502117,-0.514073 0,-0.800996 -0.836862,-1.374844 -1.805231,-1.374844 -1.398754,0 -2.510585,1.243338 -2.510585,2.749689 0,1.530261 1.147696,2.701868 2.49863,2.701868 1.578082,0 1.936737,-1.43462 1.936737,-1.542217 0,-0.107597 -0.08369,-0.107597 -0.119551,-0.107597 -0.107597,0 -0.119552,0.03587 -0.155418,0.179328 -0.263013,0.848817 -0.908592,1.207472 -1.554171,1.207472 -0.729266,0 -1.697634,-0.633624 -1.697634,-2.450809 0,-1.984558 1.016189,-2.47472 1.613947,-2.47472 0.454297,0 1.111831,0.179327 1.3868,0.645579 z" />
      <path
         id="use4217"
         d="m 99.274142,63.19502 c 0,-1.542217 -1.171606,-2.773599 -2.558406,-2.773599 -1.43462,0 -2.570361,1.267248 -2.570361,2.773599 0,1.530262 1.195517,2.677958 2.558406,2.677958 1.41071,0 2.570361,-1.171607 2.570361,-2.677958 z m -2.558406,2.414944 c -0.442341,0 -0.980324,-0.191283 -1.327023,-0.777086 -0.32279,-0.537983 -0.334745,-1.243337 -0.334745,-1.745454 0,-0.454297 0,-1.183562 0.37061,-1.721545 0.334745,-0.514072 0.860772,-0.705355 1.279203,-0.705355 0.466252,0 0.968369,0.215193 1.291158,0.681445 0.37061,0.549938 0.37061,1.303113 0.37061,1.745455 0,0.41843 0,1.159651 -0.310834,1.721544 -0.334745,0.573848 -0.884682,0.800996 -1.338979,0.800996 z" />
      <path
         id="use4219"
         d="m 103.561,60.69639 c 0,-0.215193 0,-0.274969 -0.11955,-0.274969 -0.0956,0 -0.32279,0.263014 -0.40647,0.37061 -0.37061,-0.298879 -0.74122,-0.37061 -1.12379,-0.37061 -1.44657,0 -1.87696,0.789041 -1.87696,1.446575 0,0.131507 0,0.549938 0.4543,0.968369 0.38256,0.334745 0.78904,0.418431 1.33898,0.526027 0.65753,0.131507 0.81295,0.167373 1.11183,0.406476 0.21519,0.179328 0.37061,0.442341 0.37061,0.777086 0,0.514072 -0.29888,1.08792 -1.35094,1.08792 -0.78904,0 -1.36289,-0.454296 -1.6259,-1.649813 -0.0478,-0.215193 -0.0478,-0.227148 -0.0598,-0.239103 -0.0239,-0.04782 -0.0717,-0.04782 -0.10759,-0.04782 -0.13151,0 -0.13151,0.05978 -0.13151,0.274969 v 1.625903 c 0,0.215193 0,0.274969 0.11955,0.274969 0.0598,0 0.0717,-0.01196 0.27497,-0.263014 0.0598,-0.08369 0.0598,-0.107597 0.2391,-0.298879 0.4543,0.561893 1.09988,0.561893 1.30312,0.561893 1.25529,0 1.87696,-0.6934 1.87696,-1.637858 0,-0.645579 -0.39452,-1.028145 -0.50212,-1.135741 -0.43038,-0.370611 -0.75317,-0.442342 -1.54222,-0.585804 -0.35865,-0.07173 -1.23138,-0.239103 -1.23138,-0.956413 0,-0.37061 0.25106,-0.920548 1.32703,-0.920548 1.30311,0 1.37484,1.111831 1.39875,1.482441 0.012,0.09564 0.0956,0.09564 0.13151,0.09564 0.1315,0 0.1315,-0.05978 0.1315,-0.274969 z" />
      <path
         id="use4221"
         d="m 108.1425,68.658532 c 0,-0.03587 0,-0.05978 -0.20324,-0.263014 -1.19551,-1.207472 -1.865,-3.180075 -1.865,-5.618929 0,-2.319302 0.56189,-4.315816 1.94869,-5.726525 0.11955,-0.107597 0.11955,-0.131507 0.11955,-0.167373 0,-0.07173 -0.0598,-0.09564 -0.10759,-0.09564 -0.15542,0 -1.13575,0.860772 -1.72155,2.032378 -0.60971,1.207472 -0.88468,2.486675 -0.88468,3.957161 0,1.06401 0.16737,2.486675 0.78904,3.765878 0.70535,1.43462 1.68568,2.211706 1.81719,2.211706 0.0478,0 0.10759,-0.02391 0.10759,-0.09564 z" />
      <path
         id="use4223"
         d="m 114.34464,62.728768 c 0,-1.159651 -0.65754,-2.247571 -1.92478,-2.247571 -1.56613,0 -3.13226,1.709589 -3.13226,3.407223 0,1.040099 0.64558,1.984558 1.86501,1.984558 0.74122,0 1.6259,-0.286924 2.47472,-1.004234 0.16737,0.669489 0.53798,1.004234 1.05205,1.004234 0.64558,0 0.96837,-0.66949 0.96837,-0.824907 0,-0.107596 -0.0837,-0.107596 -0.11955,-0.107596 -0.0956,0 -0.1076,0.03586 -0.14346,0.131506 -0.1076,0.29888 -0.38257,0.561893 -0.66949,0.561893 -0.37061,0 -0.37061,-0.76513 -0.37061,-1.494396 1.21942,-1.45853 1.50635,-2.964881 1.50635,-2.976837 0,-0.107596 -0.0956,-0.107596 -0.13151,-0.107596 -0.10759,0 -0.11955,0.03587 -0.16737,0.251058 -0.15542,0.526028 -0.46625,1.458531 -1.20747,2.438855 z m -0.75318,1.853052 c -1.05205,0.944458 -1.99651,1.052054 -2.41494,1.052054 -0.84882,0 -1.08792,-0.753175 -1.08792,-1.315068 0,-0.514072 0.26301,-1.7335 0.63362,-2.391034 0.49016,-0.836862 1.15965,-1.207472 1.69764,-1.207472 1.15965,0 1.15965,1.518307 1.15965,2.522541 0,0.298879 -0.012,0.609713 -0.012,0.908592 0,0.239104 0.012,0.29888 0.0239,0.430387 z" />
      <path
         id="use4225"
         d="m 119.70247,62.776589 c 0,-0.908593 -0.11955,-2.391033 -0.78904,-3.777833 -0.70535,-1.43462 -1.68568,-2.211706 -1.81718,-2.211706 -0.0478,0 -0.1076,0.02391 -0.1076,0.09564 0,0.03587 0,0.05978 0.20324,0.263014 1.19551,1.207472 1.865,3.180075 1.865,5.618929 0,2.319303 -0.56189,4.315816 -1.94869,5.726525 -0.11955,0.107597 -0.11955,0.131507 -0.11955,0.167373 0,0.07173 0.0598,0.09564 0.1076,0.09564 0.15541,0 1.13574,-0.860772 1.72154,-2.032378 0.60971,-1.219428 0.88468,-2.510586 0.88468,-3.945206 z" />
    </g>
  </g>
</svg>
